<?xml version="1.0" encoding="utf-8"?>
<!-- Generator: Adobe Illustrator 16.0.3, SVG Export Plug-In . SVG Version: 6.00 Build 0)  -->
<!DOCTYPE svg PUBLIC "-//W3C//DTD SVG 1.1//EN" "http://www.w3.org/Graphics/SVG/1.1/DTD/svg11.dtd">
<svg version="1.1" id="Layer_1" xmlns="http://www.w3.org/2000/svg" xmlns:xlink="http://www.w3.org/1999/xlink" x="0px" y="0px"
	 width="960px" height="1066.5px" viewBox="0 0 960 1066.5" enable-background="new 0 0 960 1066.5" xml:space="preserve">
<g>
	<path fill="#FFFFFF" d="M137.923,765.383l-34.502-19.92l384.36-665.712l34.502,19.92L137.923,765.383z"/>
	<path fill="#FFFFFF" d="M95.52,692.279h768.72v39.84H95.52V692.279z"/>
	<path fill="#FFFFFF" d="M495.235,936.661l-384.504-222l19.92-34.502l384.504,222L495.235,936.661z M829.253,358.072l-384.504-222
		l19.92-34.503l384.504,222L829.253,358.072z"/>
	<path fill="#FFFFFF" d="M130.757,357.918l-19.92-34.5l384.504-222l19.92,34.503L130.757,357.918z"/>
	<path fill="#FFFFFF" d="M822.163,765.391L437.803,99.679l34.503-19.921l384.36,665.713L822.163,765.391z M126,296.999h39.84v444
		H126V296.999z M794.16,296.999H834v444h-39.84V296.999z"/>
	<path fill="#FFFFFF" d="M488.453,919.799l-17.4-30.139l334.416-193.08l17.4,30.137L488.453,919.799z"/>
	<path fill="#FFFFFF" d="M886.8,753.959c-23.04,40.08-74.399,53.76-114.479,30.72S718.56,710.279,741.6,670.199
		s74.4-53.761,114.48-30.721C896.4,662.759,910.08,713.879,886.8,753.959 M218.16,367.799c-23.04,40.08-74.4,53.76-114.48,30.72
		c-40.08-23.039-53.76-74.399-30.72-114.479s74.4-53.76,114.48-30.72C227.52,276.599,241.2,327.719,218.16,367.799 M73.2,753.959
		c-23.04-40.08-9.36-91.2,30.72-114.479c40.08-23.04,91.2-9.36,114.48,30.72c23.04,40.08,9.36,91.2-30.72,114.479
		C147.36,807.719,96.24,794.039,73.2,753.959 M741.84,367.799c-23.04-40.08-9.359-91.2,30.72-114.479
		c40.08-23.04,91.2-9.36,114.48,30.72c23.04,40.08,9.36,91.2-30.72,114.479C816.24,421.559,764.88,407.879,741.84,367.799
		 M480,988.919c-46.32,0-83.76-37.439-83.76-83.76s37.439-83.76,83.76-83.76s83.76,37.439,83.76,83.76
		C563.76,951.239,526.32,988.919,480,988.919 M480,216.599c-46.32,0-83.76-37.439-83.76-83.76s37.439-83.76,83.76-83.76
		s83.76,37.439,83.76,83.76S526.32,216.599,480,216.599"/>
</g>
</svg>
